<svg width="202" height="202" viewBox="0 0 202 202" fill="none" xmlns="http://www.w3.org/2000/svg">
<circle cx="37" cy="133" r="5" transform="rotate(-90 37 133)" fill="#018DCA" fill-opacity="0.32"/>
<circle cx="5" cy="133" r="5" transform="rotate(-90 5 133)" fill="#018DCA" fill-opacity="0.32"/>
<circle cx="197" cy="133" r="5" transform="rotate(-90 197 133)" fill="#018DCA" fill-opacity="0.32"/>
<circle cx="69" cy="133" r="5" transform="rotate(-90 69 133)" fill="#018DCA" fill-opacity="0.32"/>
<circle cx="101" cy="133" r="5" transform="rotate(-90 101 133)" fill="#018DCA" fill-opacity="0.32"/>
<circle cx="133" cy="133" r="5" transform="rotate(-90 133 133)" fill="#018DCA" fill-opacity="0.32"/>
<circle cx="165" cy="133" r="5" transform="rotate(-90 165 133)" fill="#018DCA" fill-opacity="0.32"/>
<circle cx="37" cy="101" r="5" transform="rotate(-90 37 101)" fill="#018DCA" fill-opacity="0.32"/>
<circle cx="5" cy="101" r="5" transform="rotate(-90 5 101)" fill="#018DCA" fill-opacity="0.32"/>
<circle cx="197" cy="101" r="5" transform="rotate(-90 197 101)" fill="#018DCA" fill-opacity="0.32"/>
<circle cx="69" cy="101" r="5" transform="rotate(-90 69 101)" fill="#018DCA" fill-opacity="0.32"/>
<circle cx="101" cy="101" r="5" transform="rotate(-90 101 101)" fill="#018DCA" fill-opacity="0.32"/>
<circle cx="133" cy="101" r="5" transform="rotate(-90 133 101)" fill="#018DCA" fill-opacity="0.32"/>
<circle cx="165" cy="101" r="5" transform="rotate(-90 165 101)" fill="#018DCA" fill-opacity="0.32"/>
<circle cx="37" cy="197" r="5" transform="rotate(-90 37 197)" fill="#018DCA" fill-opacity="0.32"/>
<circle cx="5" cy="197" r="5" transform="rotate(-90 5 197)" fill="#018DCA" fill-opacity="0.32"/>
<circle cx="197" cy="197" r="5" transform="rotate(-90 197 197)" fill="#018DCA" fill-opacity="0.32"/>
<circle cx="69" cy="197" r="5" transform="rotate(-90 69 197)" fill="#018DCA" fill-opacity="0.32"/>
<circle cx="101" cy="197" r="5" transform="rotate(-90 101 197)" fill="#018DCA" fill-opacity="0.32"/>
<circle cx="133" cy="197" r="5" transform="rotate(-90 133 197)" fill="#018DCA" fill-opacity="0.32"/>
<circle cx="165" cy="197" r="5" transform="rotate(-90 165 197)" fill="#018DCA" fill-opacity="0.32"/>
<circle cx="37" cy="69" r="5" transform="rotate(-90 37 69)" fill="#018DCA" fill-opacity="0.32"/>
<circle cx="5" cy="69" r="5" transform="rotate(-90 5 69)" fill="#018DCA" fill-opacity="0.32"/>
<circle cx="197" cy="69" r="5" transform="rotate(-90 197 69)" fill="#018DCA" fill-opacity="0.32"/>
<circle cx="69" cy="69" r="5" transform="rotate(-90 69 69)" fill="#018DCA" fill-opacity="0.32"/>
<circle cx="101" cy="69" r="5" transform="rotate(-90 101 69)" fill="#018DCA" fill-opacity="0.32"/>
<circle cx="133" cy="69" r="5" transform="rotate(-90 133 69)" fill="#018DCA" fill-opacity="0.32"/>
<circle cx="165" cy="69" r="5" transform="rotate(-90 165 69)" fill="#018DCA" fill-opacity="0.32"/>
<circle cx="37" cy="37" r="5" transform="rotate(-90 37 37)" fill="#018DCA" fill-opacity="0.32"/>
<circle cx="5" cy="37" r="5" transform="rotate(-90 5 37)" fill="#018DCA" fill-opacity="0.32"/>
<circle cx="197" cy="37" r="5" transform="rotate(-90 197 37)" fill="#018DCA" fill-opacity="0.32"/>
<circle cx="69" cy="37" r="5" transform="rotate(-90 69 37)" fill="#018DCA" fill-opacity="0.32"/>
<circle cx="101" cy="37" r="5" transform="rotate(-90 101 37)" fill="#018DCA" fill-opacity="0.32"/>
<circle cx="133" cy="37" r="5" transform="rotate(-90 133 37)" fill="#018DCA" fill-opacity="0.32"/>
<circle cx="165" cy="37" r="5" transform="rotate(-90 165 37)" fill="#018DCA" fill-opacity="0.32"/>
<circle cx="37" cy="5.00001" r="5" transform="rotate(-90 37 5.00001)" fill="#018DCA" fill-opacity="0.32"/>
<circle cx="5" cy="5.00001" r="5" transform="rotate(-90 5 5.00001)" fill="#018DCA" fill-opacity="0.32"/>
<circle cx="197" cy="5" r="5" transform="rotate(-90 197 5)" fill="#018DCA" fill-opacity="0.32"/>
<circle cx="69" cy="5.00001" r="5" transform="rotate(-90 69 5.00001)" fill="#018DCA" fill-opacity="0.32"/>
<circle cx="101" cy="5" r="5" transform="rotate(-90 101 5)" fill="#018DCA" fill-opacity="0.32"/>
<circle cx="133" cy="5" r="5" transform="rotate(-90 133 5)" fill="#018DCA" fill-opacity="0.32"/>
<circle cx="165" cy="5" r="5" transform="rotate(-90 165 5)" fill="#018DCA" fill-opacity="0.32"/>
<circle cx="37" cy="165" r="5" transform="rotate(-90 37 165)" fill="#018DCA" fill-opacity="0.32"/>
<circle cx="5" cy="165" r="5" transform="rotate(-90 5 165)" fill="#018DCA" fill-opacity="0.32"/>
<circle cx="197" cy="165" r="5" transform="rotate(-90 197 165)" fill="#018DCA" fill-opacity="0.32"/>
<circle cx="69" cy="165" r="5" transform="rotate(-90 69 165)" fill="#018DCA" fill-opacity="0.32"/>
<circle cx="101" cy="165" r="5" transform="rotate(-90 101 165)" fill="#018DCA" fill-opacity="0.32"/>
<circle cx="133" cy="165" r="5" transform="rotate(-90 133 165)" fill="#018DCA" fill-opacity="0.32"/>
<circle cx="165" cy="165" r="5" transform="rotate(-90 165 165)" fill="#018DCA" fill-opacity="0.32"/>
</svg>
