<svg width="46" height="106" viewBox="0 0 46 106" fill="none" xmlns="http://www.w3.org/2000/svg">
<circle cx="3.30299" cy="82.9335" r="3.09398" transform="rotate(180 3.30299 82.9335)" fill="#D76BFF" fill-opacity="0.32"/>
<circle cx="3.30299" cy="102.735" r="3.09398" transform="rotate(180 3.30299 102.735)" fill="#D76BFF" fill-opacity="0.32"/>
<circle cx="3.30299" cy="63.132" r="3.09398" transform="rotate(180 3.30299 63.132)" fill="#D76BFF" fill-opacity="0.32"/>
<circle cx="3.30299" cy="43.3305" r="3.09398" transform="rotate(180 3.30299 43.3305)" fill="#D76BFF" fill-opacity="0.32"/>
<circle cx="3.30299" cy="23.529" r="3.09398" transform="rotate(180 3.30299 23.529)" fill="#D76BFF" fill-opacity="0.32"/>
<circle cx="3.30299" cy="3.72752" r="3.09398" transform="rotate(180 3.30299 3.72752)" fill="#D76BFF" fill-opacity="0.32"/>
<circle cx="42.906" cy="82.9335" r="3.09398" transform="rotate(180 42.906 82.9335)" fill="#D76BFF" fill-opacity="0.32"/>
<circle cx="42.906" cy="102.735" r="3.09398" transform="rotate(180 42.906 102.735)" fill="#D76BFF" fill-opacity="0.32"/>
<circle cx="42.906" cy="63.132" r="3.09398" transform="rotate(180 42.906 63.132)" fill="#D76BFF" fill-opacity="0.32"/>
<circle cx="42.906" cy="43.3305" r="3.09398" transform="rotate(180 42.906 43.3305)" fill="#D76BFF" fill-opacity="0.32"/>
<circle cx="42.906" cy="23.529" r="3.09398" transform="rotate(180 42.906 23.529)" fill="#D76BFF" fill-opacity="0.32"/>
<circle cx="42.906" cy="3.72752" r="3.09398" transform="rotate(180 42.906 3.72752)" fill="#D76BFF" fill-opacity="0.32"/>
<circle cx="23.1045" cy="82.9335" r="3.09398" transform="rotate(180 23.1045 82.9335)" fill="#D76BFF" fill-opacity="0.32"/>
<circle cx="23.1045" cy="102.735" r="3.09398" transform="rotate(180 23.1045 102.735)" fill="#D76BFF" fill-opacity="0.32"/>
<circle cx="23.1045" cy="63.132" r="3.09398" transform="rotate(180 23.1045 63.132)" fill="#D76BFF" fill-opacity="0.32"/>
<circle cx="23.1045" cy="43.3305" r="3.09398" transform="rotate(180 23.1045 43.3305)" fill="#D76BFF" fill-opacity="0.32"/>
<circle cx="23.1045" cy="23.529" r="3.09398" transform="rotate(180 23.1045 23.529)" fill="#D76BFF" fill-opacity="0.32"/>
<circle cx="23.1045" cy="3.72752" r="3.09398" transform="rotate(180 23.1045 3.72752)" fill="#D76BFF" fill-opacity="0.32"/>
</svg>
