<svg width="170" height="74" viewBox="0 0 170 74" fill="none" xmlns="http://www.w3.org/2000/svg">
<circle cx="165" cy="5" r="5" transform="rotate(90 165 5)" fill="#D76BFF" fill-opacity="0.32"/>
<circle cx="5" cy="5" r="5" transform="rotate(90 5 5)" fill="#D76BFF" fill-opacity="0.32"/>
<circle cx="133" cy="5" r="5" transform="rotate(90 133 5)" fill="#D76BFF" fill-opacity="0.32"/>
<circle cx="101" cy="5" r="5" transform="rotate(90 101 5)" fill="#D76BFF" fill-opacity="0.32"/>
<circle cx="69" cy="5" r="5" transform="rotate(90 69 5)" fill="#D76BFF" fill-opacity="0.32"/>
<circle cx="37" cy="5" r="5" transform="rotate(90 37 5)" fill="#D76BFF" fill-opacity="0.32"/>
<circle cx="165" cy="37" r="5" transform="rotate(90 165 37)" fill="#D76BFF" fill-opacity="0.32"/>
<circle cx="5" cy="37" r="5" transform="rotate(90 5 37)" fill="#D76BFF" fill-opacity="0.32"/>
<circle cx="133" cy="37" r="5" transform="rotate(90 133 37)" fill="#D76BFF" fill-opacity="0.32"/>
<circle cx="101" cy="37" r="5" transform="rotate(90 101 37)" fill="#D76BFF" fill-opacity="0.32"/>
<circle cx="69" cy="37" r="5" transform="rotate(90 69 37)" fill="#D76BFF" fill-opacity="0.32"/>
<circle cx="37" cy="37" r="5" transform="rotate(90 37 37)" fill="#D76BFF" fill-opacity="0.32"/>
<circle cx="165" cy="69" r="5" transform="rotate(90 165 69)" fill="#D76BFF" fill-opacity="0.32"/>
<circle cx="5" cy="69" r="5" transform="rotate(90 5 69)" fill="#D76BFF" fill-opacity="0.32"/>
<circle cx="133" cy="69" r="5" transform="rotate(90 133 69)" fill="#D76BFF" fill-opacity="0.32"/>
<circle cx="101" cy="69" r="5" transform="rotate(90 101 69)" fill="#D76BFF" fill-opacity="0.32"/>
<circle cx="69" cy="69" r="5" transform="rotate(90 69 69)" fill="#D76BFF" fill-opacity="0.32"/>
<circle cx="37" cy="69" r="5" transform="rotate(90 37 69)" fill="#D76BFF" fill-opacity="0.32"/>
</svg>
