<svg width="18" height="18" viewBox="0 0 18 18" fill="none" xmlns="http://www.w3.org/2000/svg">
<path d="M17.8069 13.6531C17.1368 12.3864 14.81 11.0129 14.7076 10.9529C14.4086 10.7827 14.0966 10.6926 13.8046 10.6926C13.3705 10.6926 13.0151 10.8915 12.7998 11.2532C12.4595 11.6603 12.0374 12.1361 11.9349 12.2099C11.1421 12.7478 10.5214 12.6867 9.83465 12L6.00187 8.16688C5.31947 7.48448 5.25674 6.85614 5.79098 6.06763C5.86572 5.96452 6.34157 5.54207 6.74867 5.20137C7.00829 5.04687 7.18648 4.81729 7.26456 4.53565C7.36834 4.16092 7.29192 3.72011 7.04699 3.29065C6.98926 3.19187 5.61512 0.864709 4.3491 0.19499C4.11284 0.0698551 3.84656 0.00378418 3.5796 0.00378418C3.1398 0.00378418 2.72602 0.175302 2.41502 0.485969L1.56811 1.33254C0.228671 2.67165 -0.256184 4.18961 0.126227 5.84406C0.445236 7.22287 1.3749 8.69011 2.88986 10.2047L7.7968 15.1117C9.71419 17.0291 11.5422 18.0014 13.23 18.0014C13.23 18.0014 13.23 18.0014 13.2303 18.0014C14.4716 18.0014 15.6289 17.4739 16.669 16.4338L17.5156 15.5872C18.0301 15.073 18.1469 14.2955 17.8069 13.6531Z" fill="#2F3A3C"/>
</svg>
