<svg width="125" height="126" viewBox="0 0 125 126" fill="none" xmlns="http://www.w3.org/2000/svg">
<circle cx="22.8986" cy="82.8015" r="3.09398" transform="rotate(-90 22.8986 82.8015)" fill="white"/>
<circle cx="3.09691" cy="82.8015" r="3.09398" transform="rotate(-90 3.09691 82.8015)" fill="white"/>
<circle cx="121.906" cy="82.8015" r="3.09398" transform="rotate(-90 121.906 82.8015)" fill="white"/>
<circle cx="42.7001" cy="82.8015" r="3.09398" transform="rotate(-90 42.7001 82.8015)" fill="white"/>
<circle cx="62.5016" cy="82.8015" r="3.09398" transform="rotate(-90 62.5016 82.8015)" fill="white"/>
<circle cx="82.303" cy="82.8015" r="3.09398" transform="rotate(-90 82.303 82.8015)" fill="white"/>
<circle cx="102.104" cy="82.8015" r="3.09398" transform="rotate(-90 102.104 82.8015)" fill="white"/>
<circle cx="22.8986" cy="63" r="3.09398" transform="rotate(-90 22.8986 63)" fill="white"/>
<circle cx="3.09691" cy="63" r="3.09398" transform="rotate(-90 3.09691 63)" fill="white"/>
<circle cx="121.906" cy="63" r="3.09398" transform="rotate(-90 121.906 63)" fill="white"/>
<circle cx="42.7001" cy="63" r="3.09398" transform="rotate(-90 42.7001 63)" fill="white"/>
<circle cx="62.5016" cy="63" r="3.09398" transform="rotate(-90 62.5016 63)" fill="white"/>
<circle cx="82.303" cy="63" r="3.09398" transform="rotate(-90 82.303 63)" fill="white"/>
<circle cx="102.104" cy="63" r="3.09398" transform="rotate(-90 102.104 63)" fill="white"/>
<circle cx="22.8986" cy="122.404" r="3.09398" transform="rotate(-90 22.8986 122.404)" fill="#018DCA" fill-opacity="0.32"/>
<circle cx="3.09691" cy="122.404" r="3.09398" transform="rotate(-90 3.09691 122.404)" fill="#018DCA" fill-opacity="0.32"/>
<circle cx="121.906" cy="122.404" r="3.09398" transform="rotate(-90 121.906 122.404)" fill="#018DCA" fill-opacity="0.32"/>
<circle cx="42.7001" cy="122.404" r="3.09398" transform="rotate(-90 42.7001 122.404)" fill="#018DCA" fill-opacity="0.32"/>
<circle cx="62.5016" cy="122.404" r="3.09398" transform="rotate(-90 62.5016 122.404)" fill="#018DCA" fill-opacity="0.32"/>
<circle cx="82.303" cy="122.404" r="3.09398" transform="rotate(-90 82.303 122.404)" fill="#018DCA" fill-opacity="0.32"/>
<circle cx="102.104" cy="122.404" r="3.09398" transform="rotate(-90 102.104 122.404)" fill="#018DCA" fill-opacity="0.32"/>
<circle cx="22.8986" cy="43.1985" r="3.09398" transform="rotate(-90 22.8986 43.1985)" fill="white"/>
<circle cx="3.09691" cy="43.1985" r="3.09398" transform="rotate(-90 3.09691 43.1985)" fill="white"/>
<circle cx="121.906" cy="43.1985" r="3.09398" transform="rotate(-90 121.906 43.1985)" fill="white"/>
<circle cx="42.7001" cy="43.1985" r="3.09398" transform="rotate(-90 42.7001 43.1985)" fill="white"/>
<circle cx="62.5016" cy="43.1985" r="3.09398" transform="rotate(-90 62.5016 43.1985)" fill="white"/>
<circle cx="82.303" cy="43.1985" r="3.09398" transform="rotate(-90 82.303 43.1985)" fill="white"/>
<circle cx="102.104" cy="43.1985" r="3.09398" transform="rotate(-90 102.104 43.1985)" fill="white"/>
<circle cx="22.8986" cy="23.397" r="3.09398" transform="rotate(-90 22.8986 23.397)" fill="white"/>
<circle cx="3.09691" cy="23.397" r="3.09398" transform="rotate(-90 3.09691 23.397)" fill="white"/>
<circle cx="121.906" cy="23.397" r="3.09398" transform="rotate(-90 121.906 23.397)" fill="white"/>
<circle cx="42.7001" cy="23.397" r="3.09398" transform="rotate(-90 42.7001 23.397)" fill="white"/>
<circle cx="62.5016" cy="23.397" r="3.09398" transform="rotate(-90 62.5016 23.397)" fill="white"/>
<circle cx="82.303" cy="23.397" r="3.09398" transform="rotate(-90 82.303 23.397)" fill="white"/>
<circle cx="102.104" cy="23.397" r="3.09398" transform="rotate(-90 102.104 23.397)" fill="white"/>
<circle cx="22.8986" cy="3.59547" r="3.09398" transform="rotate(-90 22.8986 3.59547)" fill="white"/>
<circle cx="3.09691" cy="3.59547" r="3.09398" transform="rotate(-90 3.09691 3.59547)" fill="white"/>
<circle cx="121.906" cy="3.59547" r="3.09398" transform="rotate(-90 121.906 3.59547)" fill="white"/>
<circle cx="42.7001" cy="3.59547" r="3.09398" transform="rotate(-90 42.7001 3.59547)" fill="white"/>
<circle cx="62.5016" cy="3.59547" r="3.09398" transform="rotate(-90 62.5016 3.59547)" fill="white"/>
<circle cx="82.303" cy="3.59547" r="3.09398" transform="rotate(-90 82.303 3.59547)" fill="white"/>
<circle cx="102.104" cy="3.59547" r="3.09398" transform="rotate(-90 102.104 3.59547)" fill="white"/>
<circle cx="22.8986" cy="102.603" r="3.09398" transform="rotate(-90 22.8986 102.603)" fill="#018DCA" fill-opacity="0.32"/>
<circle cx="3.09691" cy="102.603" r="3.09398" transform="rotate(-90 3.09691 102.603)" fill="#018DCA" fill-opacity="0.32"/>
<circle cx="121.906" cy="102.603" r="3.09398" transform="rotate(-90 121.906 102.603)" fill="#018DCA" fill-opacity="0.32"/>
<circle cx="42.7001" cy="102.603" r="3.09398" transform="rotate(-90 42.7001 102.603)" fill="#018DCA" fill-opacity="0.32"/>
<circle cx="62.5016" cy="102.603" r="3.09398" transform="rotate(-90 62.5016 102.603)" fill="#018DCA" fill-opacity="0.32"/>
<circle cx="82.303" cy="102.603" r="3.09398" transform="rotate(-90 82.303 102.603)" fill="#018DCA" fill-opacity="0.32"/>
<circle cx="102.104" cy="102.603" r="3.09398" transform="rotate(-90 102.104 102.603)" fill="#018DCA" fill-opacity="0.32"/>
</svg>
