<svg width="107" height="47" viewBox="0 0 107 47" fill="none" xmlns="http://www.w3.org/2000/svg">
<circle cx="23.8883" cy="3.38746" r="3.09398" transform="rotate(-90 23.8883 3.38746)" fill="#D76BFF" fill-opacity="0.32"/>
<circle cx="4.08666" cy="3.38746" r="3.09398" transform="rotate(-90 4.08666 3.38746)" fill="#D76BFF" fill-opacity="0.32"/>
<circle cx="43.6898" cy="3.38746" r="3.09398" transform="rotate(-90 43.6898 3.38746)" fill="#D76BFF" fill-opacity="0.32"/>
<circle cx="63.4913" cy="3.38746" r="3.09398" transform="rotate(-90 63.4913 3.38746)" fill="#D76BFF" fill-opacity="0.32"/>
<circle cx="83.2927" cy="3.38746" r="3.09398" transform="rotate(-90 83.2927 3.38746)" fill="#D76BFF" fill-opacity="0.32"/>
<circle cx="103.094" cy="3.38746" r="3.09398" transform="rotate(-90 103.094 3.38746)" fill="#D76BFF" fill-opacity="0.32"/>
<circle cx="23.8883" cy="42.9905" r="3.09398" transform="rotate(-90 23.8883 42.9905)" fill="#D76BFF" fill-opacity="0.32"/>
<circle cx="4.08666" cy="42.9905" r="3.09398" transform="rotate(-90 4.08666 42.9905)" fill="#D76BFF" fill-opacity="0.32"/>
<circle cx="43.6898" cy="42.9905" r="3.09398" transform="rotate(-90 43.6898 42.9905)" fill="#D76BFF" fill-opacity="0.32"/>
<circle cx="63.4913" cy="42.9905" r="3.09398" transform="rotate(-90 63.4913 42.9905)" fill="#D76BFF" fill-opacity="0.32"/>
<circle cx="83.2927" cy="42.9905" r="3.09398" transform="rotate(-90 83.2927 42.9905)" fill="#D76BFF" fill-opacity="0.32"/>
<circle cx="103.094" cy="42.9905" r="3.09398" transform="rotate(-90 103.094 42.9905)" fill="#D76BFF" fill-opacity="0.32"/>
<circle cx="23.8883" cy="23.189" r="3.09398" transform="rotate(-90 23.8883 23.189)" fill="#D76BFF" fill-opacity="0.32"/>
<circle cx="4.08666" cy="23.189" r="3.09398" transform="rotate(-90 4.08666 23.189)" fill="#D76BFF" fill-opacity="0.32"/>
<circle cx="43.6898" cy="23.189" r="3.09398" transform="rotate(-90 43.6898 23.189)" fill="#D76BFF" fill-opacity="0.32"/>
<circle cx="63.4913" cy="23.189" r="3.09398" transform="rotate(-90 63.4913 23.189)" fill="#D76BFF" fill-opacity="0.32"/>
<circle cx="83.2927" cy="23.189" r="3.09398" transform="rotate(-90 83.2927 23.189)" fill="#D76BFF" fill-opacity="0.32"/>
<circle cx="103.094" cy="23.189" r="3.09398" transform="rotate(-90 103.094 23.189)" fill="#D76BFF" fill-opacity="0.32"/>
</svg>
